<svg width="44" height="44" viewBox="0 0 44 44" version="1.1" xmlns="http://www.w3.org/2000/svg" xmlns:xlink="http://www.w3.org/1999/xlink">
<title>Group</title>
<desc>Created using Figma</desc>
<g id="Canvas" transform="translate(6484 -15242)">
<g id="Group">
<g id="Vector">
<use xlink:href="#path0_fill" transform="translate(-6482.99 15242)" fill="url(#paint0_linear)"/>
</g>
<g id="Vector">
<use xlink:href="#path1_fill" transform="translate(-6484 15255.7)" fill="url(#paint1_linear)"/>
</g>
<g id="Vector">
<use xlink:href="#path2_fill" transform="translate(-6470.01 15266.6)" fill="#33E3A4"/>
</g>
<g id="Vector">
<use xlink:href="#path3_fill" transform="translate(-6483.68 15256.1)" fill="#33E3A4"/>
</g>
</g>
</g>
<defs>
<linearGradient id="paint0_linear" x1="0" y1="0" x2="1" y2="0" gradientUnits="userSpaceOnUse" gradientTransform="matrix(-3.57724 -25.3268 25.3268 -3.57724 12.0101 42.388)">
<stop offset="0" stop-color="#33E3A4" stop-opacity="0"/>
<stop offset="0.4853" stop-color="#33E3A4" stop-opacity="0.35"/>
<stop offset="1" stop-color="#33E3A4"/>
</linearGradient>
<linearGradient id="paint1_linear" x1="0" y1="0" x2="1" y2="0" gradientUnits="userSpaceOnUse" gradientTransform="matrix(11.0184 14.0234 -14.0234 11.0184 13.0729 2.0109)">
<stop offset="0" stop-color="#33E3A4" stop-opacity="0"/>
<stop offset="0.4853" stop-color="#33E3A4" stop-opacity="0.35"/>
<stop offset="1" stop-color="#33E3A4"/>
</linearGradient>
<path id="path0_fill" d="M 33.0697 40.0293C 32.576 40.0293 32.0823 39.7932 31.7819 39.3639C 31.2453 38.6556 31.417 37.6468 32.1253 37.1102C 36.9116 33.5902 39.7877 27.9239 39.7877 21.9785C 39.7877 11.6332 31.3526 3.19805 21.0072 3.19805C 13.0228 3.19805 5.89698 8.26342 3.25698 15.7971C 3.21406 15.9044 3.19259 15.9902 3.14967 16.0976C 2.87064 16.9346 1.96918 17.4068 1.11064 17.1278C 0.27357 16.8488 -0.198625 15.9473 0.0803992 15.0888C 0.123326 14.9815 0.166253 14.8527 0.20918 14.7454C 3.27845 5.9239 11.6277 0 20.9858 0C 33.1126 0 42.9858 9.87317 42.9858 22C 42.9858 28.9541 39.6375 35.5863 34.0141 39.7288C 33.735 39.9434 33.3916 40.0293 33.0697 40.0293Z"/>
<path id="path1_fill" d="M 22 30.3138C 9.87317 30.3138 0 20.4406 0 8.31379C 0 5.82403 0.407805 3.39867 1.22341 1.08062C 1.5239 0.243546 2.42537 -0.207187 3.26244 0.0933007C 4.09951 0.393789 4.55024 1.29525 4.24976 2.13232C 3.56293 4.10696 3.21951 6.18891 3.21951 8.31379C 3.21951 18.6592 11.6546 27.0943 22 27.0943C 25.1551 27.0943 28.2673 26.3001 30.9932 24.7977C 31.7659 24.3684 32.5171 24.9265 32.9463 25.6992C 33.3756 26.4718 33.3327 27.2016 32.5385 27.6309C 29.3405 29.3909 25.6917 30.3138 22 30.3138Z"/>
<path id="path2_fill" d="M 20.4546 15.6683L 18.3083 13.522L 4.59317 0L -6.55011e-07 0C 0.0214628 0.0214634 0.0214637 0.0214628 0.0429272 0.0429262L 16.0332 15.8185C 16.3551 16.119 16.7629 16.2907 17.1707 16.2907C 17.5141 16.2907 17.8576 16.1834 18.1581 15.9688L 18.6517 16.6985L 20.4546 15.6683Z"/>
<path id="path3_fill" d="M 27.4302 0C 27.4088 0 27.3873 0 27.3659 0L 3.09073 0C 2.29659 0 1.63122 0.579513 1.50244 1.3522L 0.858537 0.858537L 0.429268 1.93171L 0 3.21951L 3.06927 3.21951L 3.84195 3.21951L 27.3015 3.21951C 27.4732 3.24098 28.6107 3.32683 29.6839 3.90634C 31.0576 4.65756 31.7444 5.85951 31.7444 7.61951C 31.7444 12.6634 27.0654 13.2429 25.8634 13.3073L 28.5893 16.0546C 29.1044 15.9044 29.641 15.7112 30.1776 15.4537C 32.3668 14.4234 34.9639 12.2341 34.9639 7.61951C 34.9854 1.80293 30.0488 0.0858537 27.4302 0Z"/>
</defs>
</svg>
