<svg width="35" height="24" viewBox="0 0 35 24" fill="none" xmlns="http://www.w3.org/2000/svg">
<path d="M28.6143 17.5484C27.7591 17.5484 26.9466 17.8853 26.3337 18.4946C25.7208 19.1111 25.3787 19.914 25.3787 20.7742C25.3787 21.6344 25.7137 22.4373 26.3337 23.0538C26.9538 23.6631 27.7591 24 28.6143 24C30.3675 24 31.7929 22.552 31.7929 20.7742C31.7929 18.9964 30.3675 17.5484 28.6143 17.5484ZM28.6143 22.5663C27.6308 22.5663 26.8041 21.7491 26.8041 20.7742C26.8041 19.7993 27.6308 18.9821 28.6143 18.9821C29.5836 18.9821 30.3675 19.7849 30.3675 20.7742C30.3675 21.7634 29.5836 22.5663 28.6143 22.5663ZM29.4411 6.80287C29.3128 6.681 29.1417 6.61649 28.9636 6.61649H25.3075C24.9155 6.61649 24.5948 6.93907 24.5948 7.33333V13.2115C24.5948 13.6057 24.9155 13.9283 25.3075 13.9283H31.1087C31.5007 13.9283 31.8214 13.6057 31.8214 13.2115V9.27598C31.8214 9.07527 31.7359 8.88172 31.5862 8.74552L29.4411 6.80287ZM30.396 12.4946H26.0202V8.04301H28.6856L30.396 9.5914V12.4946ZM11.2105 17.5484C10.3553 17.5484 9.54286 17.8853 8.92995 18.4946C8.31704 19.1111 7.97495 19.914 7.97495 20.7742C7.97495 21.6344 8.30992 22.4373 8.92995 23.0538C9.54999 23.6631 10.3553 24 11.2105 24C12.9638 24 14.3891 22.552 14.3891 20.7742C14.3891 18.9964 12.9638 17.5484 11.2105 17.5484ZM11.2105 22.5663C10.227 22.5663 9.40032 21.7491 9.40032 20.7742C9.40032 19.7993 10.227 18.9821 11.2105 18.9821C12.1798 18.9821 12.9638 19.7849 12.9638 20.7742C12.9638 21.7634 12.1798 22.5663 11.2105 22.5663ZM6.45693 18.4301H5.02444V16.5233C5.02444 16.129 4.70373 15.8065 4.31175 15.8065C3.91977 15.8065 3.59906 16.129 3.59906 16.5233V19.147C3.59906 19.5412 3.91977 19.8638 4.31175 19.8638H6.45693C6.84891 19.8638 7.16962 19.5412 7.16962 19.147C7.16962 18.7527 6.84891 18.4301 6.45693 18.4301ZM10.0703 14.5233C10.0703 14.129 9.74954 13.8065 9.35756 13.8065H0.712686C0.320709 13.8065 0 14.129 0 14.5233C0 14.9176 0.320709 15.2401 0.712686 15.2401H9.35756C9.74954 15.2401 10.0703 14.9247 10.0703 14.5233ZM2.15944 11.9355L10.8043 11.9857C11.1963 11.9857 11.517 11.6703 11.5241 11.276C11.5313 10.8746 11.2105 10.552 10.8186 10.552L2.17369 10.5018C2.16656 10.5018 2.16656 10.5018 2.16656 10.5018C1.77459 10.5018 1.45388 10.8172 1.45388 11.2115C1.44675 11.6129 1.76746 11.9355 2.15944 11.9355ZM3.61332 8.681H12.2582C12.6502 8.681 12.9709 8.35842 12.9709 7.96416C12.9709 7.56989 12.6502 7.24731 12.2582 7.24731H3.61332C3.22134 7.24731 2.90063 7.56989 2.90063 7.96416C2.90063 8.35842 3.22134 8.681 3.61332 8.681ZM34.7363 7.71326L29.6335 3.46237C29.5052 3.35484 29.3484 3.29749 29.1774 3.29749H23.1765V0.716847C23.1765 0.322581 22.8558 7.00045e-07 22.4639 7.00045e-07H4.31175C3.91977 7.00045e-07 3.59906 0.322581 3.59906 0.716847V5.96416C3.59906 6.35842 3.91977 6.68101 4.31175 6.68101C4.70373 6.68101 5.02444 6.35842 5.02444 5.96416V1.43369H21.7583V18.4301H15.9143C15.5223 18.4301 15.2016 18.7527 15.2016 19.147C15.2016 19.5412 15.5223 19.8638 15.9143 19.8638H24.6162C25.0081 19.8638 25.3289 19.5412 25.3289 19.147C25.3289 18.7527 25.0081 18.4301 24.6162 18.4301H23.1837V4.73118H28.9279L33.5746 8.60215L33.5247 18.4158H32.7835C32.3916 18.4158 32.0709 18.7383 32.0709 19.1326C32.0709 19.5269 32.3916 19.8495 32.7835 19.8495H34.2303C34.6223 19.8495 34.943 19.534 34.943 19.1398L35 8.2724C34.9929 8.05735 34.9002 7.84946 34.7363 7.71326Z" fill="#1CC96C"/>
</svg>
