<svg width="36" height="26" viewBox="0 0 36 26" fill="none" xmlns="http://www.w3.org/2000/svg">
<path d="M34.9089 7.18232L28.1067 0.380014C27.8879 0.161219 27.5333 0.161219 27.3144 0.380014L23.9133 3.78113C23.8083 3.88615 23.7493 4.02863 23.7493 4.17721C23.7493 4.32579 23.8083 4.46828 23.9133 4.57329L24.2526 4.91258L23.4729 5.69213C22.9668 6.19809 22.1814 6.33619 21.5187 6.03539C20.8974 5.75337 20.2067 5.60438 19.5211 5.60438C18.7071 5.60438 17.9116 5.80872 17.2048 6.19576C16.91 6.12315 16.6075 6.08595 16.302 6.08595C15.8602 6.08595 15.4262 6.16219 15.0122 6.31269C14.3511 6.55286 13.6424 6.404 13.1624 5.92415L11.7624 4.52411L11.9292 4.35737C12.0342 4.25236 12.0932 4.10987 12.0932 3.96129C12.0932 3.81271 12.0342 3.67023 11.9292 3.56522L8.52806 0.164096C8.30919 -0.0546987 7.95463 -0.0546987 7.73583 0.164096L0.164045 7.73589C-0.0546817 7.95468 -0.0546817 8.30931 0.164045 8.52804L3.5651 11.9292C3.67018 12.0342 3.81259 12.0932 3.96124 12.0932C4.10989 12.0932 4.25224 12.0342 4.35739 11.9292L4.56022 11.7263L5.54761 12.7137C5.79675 12.9629 5.96191 13.2739 6.02514 13.6132C6.35299 15.3725 7.19556 16.972 8.46175 18.2389L8.64773 18.4249C8.29056 18.801 8.0941 19.2911 8.0941 19.8117C8.0941 20.3502 8.30385 20.8565 8.68458 21.2373C9.07765 21.6303 9.59381 21.8268 10.1102 21.8268C10.1438 21.8268 10.1773 21.8259 10.2109 21.8242C10.1837 22.3735 10.3793 22.9319 10.7979 23.3506C11.1787 23.7314 11.685 23.941 12.2235 23.941C12.2385 23.941 12.2534 23.9403 12.2684 23.9399C12.2569 24.4708 12.4527 25.0053 12.8569 25.4095C13.2377 25.7904 13.744 26 14.2826 26C14.8211 26 15.3273 25.7902 15.7082 25.4095C15.7402 25.3775 15.7704 25.3443 15.7999 25.3107C15.9983 25.3799 16.208 25.4166 16.42 25.4166C16.9237 25.4166 17.3969 25.2204 17.7518 24.8644C17.9406 24.6756 18.0839 24.4535 18.1772 24.2116L18.2346 24.269C18.6017 24.6361 19.0839 24.8196 19.566 24.8196C20.0482 24.8196 20.5304 24.6361 20.8975 24.269C21.0926 24.0739 21.2392 23.8435 21.3321 23.5923C21.6607 23.8313 22.0497 23.951 22.4389 23.951C22.9211 23.951 23.4036 23.7675 23.771 23.4005C24.1266 23.0449 24.3225 22.5718 24.3225 22.0685C24.3225 21.9164 24.3043 21.7673 24.2695 21.6231C24.6283 21.5502 24.9579 21.3741 25.2224 21.1092C25.578 20.7536 25.7738 20.2808 25.7738 19.7778C25.7738 19.3815 25.6518 19.0042 25.4263 18.6879L25.8757 18.2385C27.1566 16.957 28.0028 15.3375 28.3229 13.555C28.3766 13.2565 28.5244 12.9793 28.7506 12.753L30.4219 11.0817L30.7157 11.3755C30.8251 11.4849 30.9685 11.5396 31.1118 11.5396C31.2551 11.5396 31.3986 11.4849 31.508 11.3755L34.9091 7.97441C35.0141 7.8694 35.0731 7.72691 35.0731 7.57833C35.0731 7.42975 35.0139 7.2874 34.9089 7.18232ZM3.96124 10.741L1.35228 8.13203L8.13184 1.35247L10.7409 3.96143L3.96124 10.741ZM10.7435 20.4452C10.3944 20.7943 9.82617 20.7945 9.47674 20.4452C9.30754 20.276 9.21438 20.0511 9.21438 19.8118C9.21438 19.5726 9.30761 19.3476 9.47681 19.1784C9.65142 19.0038 9.8807 18.9165 10.1101 18.9165C10.3395 18.9165 10.5689 19.0038 10.7435 19.1784C11.0927 19.5277 11.0927 20.096 10.7435 20.4452ZM12.8567 22.5584C12.6876 22.7277 12.4627 22.8208 12.2233 22.8208C11.9841 22.8208 11.7592 22.7275 11.59 22.5584C11.2407 22.2092 11.2407 21.6409 11.59 21.2916C11.7646 21.117 11.9939 21.0296 12.2234 21.0296C12.4527 21.0296 12.6822 21.117 12.8567 21.2916C13.2061 21.6408 13.2061 22.2092 12.8567 22.5584ZM14.9157 24.6174C14.7465 24.7866 14.5216 24.8797 14.2824 24.8797C14.0431 24.8797 13.8182 24.7865 13.6491 24.6174C13.2998 24.2681 13.2998 23.6998 13.6491 23.3506C13.8237 23.1759 14.0529 23.0886 14.2824 23.0886C14.5117 23.0886 14.7412 23.1759 14.9157 23.3506C15.265 23.6998 15.265 24.2681 14.9157 24.6174ZM24.4298 20.3174C24.2858 20.4615 24.0944 20.5409 23.8908 20.5409C23.6872 20.5409 23.4957 20.4615 23.3515 20.317L17.9172 14.884C17.6983 14.6653 17.3437 14.6653 17.125 14.8841C16.9063 15.1029 16.9064 15.4576 17.1251 15.6763L22.9787 21.5292C23.1227 21.6732 23.202 21.8647 23.202 22.0685C23.202 22.2726 23.1227 22.4643 22.9789 22.6081C22.6811 22.9056 22.1969 22.9057 21.8996 22.6083L20.912 21.6208C20.9066 21.6151 20.9012 21.6094 20.8955 21.6038C20.8939 21.6021 20.892 21.6007 20.8903 21.599L16.3509 17.0596C16.132 16.8409 15.7775 16.8409 15.5587 17.0596C15.3399 17.2783 15.3399 17.633 15.5587 17.8518L20.1127 22.4057C20.2519 22.5484 20.3285 22.7372 20.3285 22.9375C20.3285 23.1412 20.2491 23.3327 20.1052 23.4767C19.808 23.7741 19.3242 23.7741 19.0267 23.4767L14.0888 18.5387C13.8699 18.3199 13.5153 18.3199 13.2965 18.5387C13.0777 18.7574 13.0777 19.1121 13.2965 19.3309L16.9569 22.9913C16.9579 22.9923 16.9587 22.9935 16.9598 22.9944C17.1037 23.1381 17.1829 23.3292 17.1829 23.5328C17.1829 23.7364 17.1036 23.928 16.959 24.0726C16.8152 24.2167 16.6238 24.2961 16.4199 24.2961C16.3706 24.2961 16.3225 24.291 16.2753 24.2821C16.366 23.6716 16.177 23.0272 15.708 22.5581C15.3272 22.1774 14.8209 21.9676 14.2824 21.9676C14.2674 21.9676 14.2525 21.9684 14.2375 21.9687C14.249 21.4379 14.0532 20.9034 13.649 20.4992C13.2681 20.1184 12.7619 19.9087 12.2233 19.9087C12.1896 19.9087 12.1561 19.9095 12.1227 19.9111C12.1496 19.3622 11.954 18.8043 11.5356 18.3859C11.0264 17.8767 10.3105 17.6978 9.65567 17.8483L9.25397 17.4466C8.14835 16.3405 7.41278 14.9439 7.12651 13.4078C7.02163 12.8452 6.74961 12.3311 6.3399 11.9214L5.35245 10.9339L10.9703 5.31606L12.3703 6.7161C12.9085 7.25425 13.6412 7.54223 14.3916 7.54223C14.7277 7.54223 15.0675 7.48442 15.3949 7.36543C15.5537 7.30768 15.7179 7.26624 15.8843 7.23993L12.4159 10.7084C11.9915 11.1327 11.7578 11.6969 11.7578 12.297C11.7578 12.8971 11.9915 13.4613 12.4158 13.8856C12.8538 14.3236 13.429 14.5425 14.0044 14.5424C14.5797 14.5424 15.155 14.3234 15.5931 13.8856L17.3351 12.1436L17.8066 12.6154C17.8067 12.6156 17.8068 12.6156 17.8069 12.6158L17.8265 12.6353L17.8453 12.6542C17.8454 12.6543 17.8456 12.6544 17.8457 12.6545L17.846 12.6548C17.8514 12.6601 17.8567 12.6652 17.862 12.6703L24.43 19.2383C24.5741 19.3823 24.6533 19.5738 24.6533 19.7776C24.6533 19.9816 24.5741 20.1732 24.4298 20.3174ZM27.9581 11.9609C27.5695 12.3497 27.3142 12.8325 27.2201 13.3571C26.9406 14.9134 26.2017 16.3276 25.0833 17.4465L24.6529 17.877L21.1092 14.3334C21.1862 14.3391 21.2635 14.3428 21.3414 14.3428C21.7002 14.3428 22.0674 14.2799 22.4329 14.1304C22.7193 14.0133 22.8564 13.6862 22.7393 13.3999C22.6221 13.1136 22.2953 12.9764 22.0088 13.0936C20.5671 13.6834 18.8386 12.0578 18.6462 11.8705C18.643 11.8673 18.6398 11.8642 18.6365 11.8612L18.6166 11.8413C18.6165 11.8413 18.6165 11.8413 18.6164 11.8412L18.5991 11.8239C18.599 11.8239 18.5989 11.8237 18.5987 11.8237L18.1272 11.3518L18.6619 10.817C18.8807 10.5982 18.8808 10.2435 18.662 10.0247C18.4432 9.80608 18.0885 9.80601 17.8698 10.0247L16.9402 10.9543C16.9399 10.9547 16.9395 10.955 16.9391 10.9553C16.9388 10.9557 16.9384 10.9561 16.9381 10.9564L14.8008 13.0937C14.3616 13.5329 13.6471 13.5327 13.208 13.0937C12.9953 12.881 12.8782 12.5982 12.8782 12.2973C12.8782 11.9964 12.9953 11.7136 13.2081 11.5009L16.8971 7.81179C17.1023 7.60662 17.3304 7.42612 17.5756 7.27494C18.1581 6.91489 18.8308 6.72459 19.5211 6.72459C20.0481 6.72459 20.5787 6.83899 21.0558 7.05552C22.141 7.54792 23.4308 7.3185 24.2651 6.48436L25.0449 5.70474L29.6297 10.2895L27.9581 11.9609ZM31.1116 10.1874L25.1015 4.17735L27.7106 1.56839L33.7207 7.57847L31.1116 10.1874Z" fill="#1CC96C"/>
<path d="M31.6764 8.56755C31.9857 8.56755 32.2365 8.31676 32.2365 8.00741C32.2365 7.69805 31.9857 7.44727 31.6764 7.44727C31.367 7.44727 31.1162 7.69805 31.1162 8.00741C31.1162 8.31676 31.367 8.56755 31.6764 8.56755Z" fill="#1CC96C"/>
<path d="M3.66909 9.12028C3.97844 9.12028 4.22923 8.8695 4.22923 8.56014C4.22923 8.25078 3.97844 8 3.66909 8C3.35973 8 3.10895 8.25078 3.10895 8.56014C3.10895 8.8695 3.35973 9.12028 3.66909 9.12028Z" fill="#1CC96C"/>
</svg>
