<svg width="14" height="14" viewBox="0 0 14 14" version="1.1" xmlns="http://www.w3.org/2000/svg" xmlns:xlink="http://www.w3.org/1999/xlink">
<title>Vector</title>
<desc>Created using Figma</desc>
<g id="Canvas" transform="translate(6352 -18035)">
<g id="Vector">
<use xlink:href="#path0_fill" transform="matrix(-1 1.22465e-16 -1.22465e-16 -1 -6338.33 18048.7)" fill="#34DF83" fill-opacity="0.5"/>
</g>
</g>
<defs>
<path id="path0_fill" d="M 6.66667 0C 2.98667 0 0 2.98667 0 6.66667C 0 10.3467 2.98667 13.3333 6.66667 13.3333C 10.3467 13.3333 13.3333 10.3467 13.3333 6.66667C 13.3333 2.98667 10.3467 0 6.66667 0ZM 6.66667 9.66667C 5.00667 9.66667 3.66667 8.32667 3.66667 6.66667C 3.66667 5.00667 5.00667 3.66667 6.66667 3.66667C 8.32667 3.66667 9.66667 5.00667 9.66667 6.66667C 9.66667 8.32667 8.32667 9.66667 6.66667 9.66667ZM 6.66667 6C 6.3 6 6 6.3 6 6.66667C 6 7.03333 6.3 7.33333 6.66667 7.33333C 7.03333 7.33333 7.33333 7.03333 7.33333 6.66667C 7.33333 6.3 7.03333 6 6.66667 6Z"/>
</defs>
</svg>
