<svg width="23" height="30" viewBox="0 0 23 30" fill="none" xmlns="http://www.w3.org/2000/svg">
<path d="M18.4 24.1323V16.3086H13.8V24.1323H11.1714L16.0895 30.0001L21.0286 24.1323H18.4Z" fill="#E13D1A"/>
<path d="M22.9849 6.52888L22.9901 6.52432L17.0857 0.0247751V0.00912765H17.0719L17.0634 -3.18658e-09L17.0535 0.00912765H4.968C3.85874 0.00912765 2.62857 0.578302 2.62857 1.67818V25.0717C2.62857 26.1716 3.85874 27.3927 4.968 27.3927H12.4857V26.7408H4.968C4.22149 26.7408 3.28571 25.8124 3.28571 25.0717V1.67753C3.28571 0.936889 4.22149 0.660451 4.968 0.660451H16.4286V5.02217C16.4286 6.12205 17.5497 7.18021 18.6589 7.18021H22.3429V25.0704C22.3429 25.8111 22.0642 26.7395 21.3177 26.7395H19.7143V27.3914H21.3177C22.427 27.3914 23 26.1703 23 25.0704V6.52823H22.9849V6.52888ZM17.0857 5.02282V0.998174L22.1096 6.52823H18.6589C17.9124 6.52888 17.0857 5.76346 17.0857 5.02282Z" fill="#4D4D4D"/>
<path d="M14.4571 5.22461H0V11.0924H14.4571V5.22461Z" fill="#E13D1A"/>
<path d="M2.85434 8.73102V10.2436H2.01123V6.07227H3.62057C4.10292 6.07227 4.4834 6.19484 4.76006 6.43933C5.03672 6.68382 5.17603 7.00524 5.17603 7.4049C5.17603 7.80456 5.03737 8.12468 4.76006 8.36787C4.48274 8.61106 4.10292 8.73167 3.62057 8.73167H2.85434V8.73102ZM2.85434 8.08687H3.62057C3.85386 8.08687 4.0326 8.02363 4.15483 7.89649C4.27574 7.77001 4.33686 7.60767 4.33686 7.41077C4.33686 7.20996 4.2764 7.04436 4.15614 6.91397C4.03589 6.78357 3.85714 6.71772 3.62123 6.71772H2.85434V8.08687Z" fill="white"/>
<path d="M5.78 10.2443V6.07227H7.24674C7.76128 6.07227 8.18514 6.23526 8.51766 6.5606C8.85148 6.88658 9.0184 7.3045 9.0184 7.81434V8.50479C9.0184 9.01659 8.85148 9.4345 8.51766 9.75788C8.18514 10.0819 7.76194 10.2436 7.24674 10.2436H5.78V10.2443ZM6.62311 6.71707V9.60206H7.24674C7.52406 9.60206 7.74748 9.4997 7.91703 9.29368C8.08657 9.08896 8.17134 8.82556 8.17134 8.50479V7.80848C8.17134 7.48966 8.08657 7.22757 7.91703 7.0235C7.74748 6.81943 7.52406 6.71707 7.24674 6.71707H6.62311Z" fill="white"/>
<path d="M12.1511 8.51065H10.5365V10.2443H9.69336V6.07227H12.4461V6.71707H10.5365V7.86585H12.1511V8.51065Z" fill="white"/>
</svg>
